# xmcd
#
# Track frame offsets:
# 150
# 24150
# 49216
# 75402
# 99615
# 117280
# 133802
# 151951
# 171188
# 190025
# 204668
# 228365
# 252062
#
# Disc length: 3652 seconds
#
# Revision: 0
# Processed by: cddbd v1.5.2PL0 Copyright (c) Steve Scherf et al.
# Submitted via: Audion 3.0.2 (http://www.panic.com/audion/)
#
DISCID=a00e420d
DTITLE=Youssou N'Dour - West Africa meets North Africa
DYEAR=1900
DGENRE=
TTITLE0=West Africa meets North Africa 1
TTITLE1=West Africa meets North Africa 2
TTITLE2=West Africa meets North Africa 3
TTITLE3=West Africa meets North Africa 4
TTITLE4=West Africa meets North Africa 5
TTITLE5=West Africa meets North Africa 6
TTITLE6=West Africa meets North Africa 7
TTITLE7=West Africa meets North Africa 8
TTITLE8=West Africa meets North Africa 9
TTITLE9=West Africa meets North Africa 10
TTITLE10=West Africa meets North Africa 11
TTITLE11=West Africa meets North Africa 12
TTITLE12=West Africa meets North Africa 13
EXTD=
EXTT0=
EXTT1=
EXTT2=
EXTT3=
EXTT4=
EXTT5=
EXTT6=
EXTT7=
EXTT8=
EXTT9=
EXTT10=
EXTT11=
EXTT12=
PLAYORDER=
